<svg aria-hidden="true" style="position: absolute; width: 0; height: 0; overflow: hidden;"
    version="1.1" xmlns="http://www.w3.org/2000/svg" xmlns:xlink="http://www.w3.org/1999/xlink">
    <defs>

        <svg id="stt"
            viewBox="0 0 20 20">
            <path
                d="M10,20A10,10,0,1,0,0,10,10,10,0,0,0,10,20ZM7.994,9.422,10,6.938l2.01,2.484,2.008,2.484H5.988Z" />
        </svg>

        <symbol id="youtube" viewBox="0 0 32 32">
            <path
                d="M18.67 15.72l-3.74-1.75c-0.33-0.15-0.6 0.020-0.6 0.38v3.3c0 0.36 0.27 0.53 0.6 0.38l3.74-1.75c0.33-0.16 0.33-0.4 0-0.56zM16 0c-8.837 0-16 7.163-16 16s7.163 16 16 16v0c8.837 0 16-7.163 16-16s-7.163-16-16-16v0zM16 22.5c-8.19 0-8.33-0.74-8.33-6.5s0.13-6.5 8.33-6.5 8.33 0.74 8.33 6.5-0.14 6.5-8.33 6.5z"></path>
        </symbol>
        <symbol id="instagram" viewBox="0 0 32 32">
            <path
                d="M23.39 0h-14.77c-4.761 0-8.62 3.859-8.62 8.62v0 14.76c0 4.761 3.859 8.62 8.62 8.62v0h14.77c4.754-0.011 8.604-3.865 8.61-8.619v-14.761c-0.006-4.758-3.862-8.614-8.619-8.62h-0.001zM16 23.39c-4.084 0-7.395-3.311-7.395-7.395s3.311-7.395 7.395-7.395v0c4.081 0 7.39 3.309 7.39 7.39s-3.309 7.39-7.39 7.39v0zM25.23 8.6c-0.041 0.003-0.088 0.005-0.136 0.005-1.022 0-1.85-0.828-1.85-1.85s0.828-1.85 1.85-1.85c0.048 0 0.095 0.002 0.142 0.005l-0.006-0c1.022 0 1.85 0.828 1.85 1.85s-0.828 1.85-1.85 1.85v0zM20.93 16c0 2.72-2.205 4.925-4.925 4.925s-4.925-2.205-4.925-4.925v0c0-2.717 2.203-4.92 4.92-4.92s4.92 2.203 4.92 4.92v0z"></path>
        </symbol>
        <symbol id="facebook" viewBox="0 0 32 32">
            <path
                d="M32 16.040c0-8.85-7.17-16.040-16-16.040s-16 7.19-16 16.040c0 7.76 5.5 14.23 12.8 15.72v-10.9h-3.2v-4.82h3.2v-4.010c0-0.003 0-0.007 0-0.010 0-3.093 2.507-5.6 5.6-5.6 0 0 0 0 0 0h4v4.8h-3.2c-0.88 0-1.6 0.73-1.6 1.61v3.21h4.8v4.81h-4.8v11.15c8.080-0.8 14.4-7.63 14.4-15.96z"></path>
        </symbol>
        <symbol id="close" viewBox="0 0 32 32">
            <path
                d="M32 3.72l-3.72-3.72-12.28 12.28-12.28-12.28-3.72 3.72 12.28 12.28-12.28 12.28 3.72 3.72 12.28-12.28 12.28 12.28 3.72-3.72-12.28-12.28 12.28-12.28z"></path>
        </symbol>

        <symbol id="icon-menu-duo" viewBox="0 0 32 32">
            <path stroke-linejoin="round" stroke-linecap="round" stroke-miterlimit="4"
                stroke-width="2.8571"
                d="M4 20h24M4 12h24"></path>
        </symbol>
    </defs>
</svg>