
<svg aria-hidden="true" style="position: absolute; width: 0; height: 0; overflow: hidden;" version="1.1" xmlns="http://www.w3.org/2000/svg" xmlns:xlink="http://www.w3.org/1999/xlink">
<defs>

<symbol id="favicon" width="32" height="32" viewBox="0 0 32 32" fill="none" xmlns="http://www.w3.org/2000/svg">
<rect width="32" height="32" rx="8" fill="#1B414B"/>
<path d="M7.36927 10.8182H9.1143L11.7741 15.4467H11.8835L14.5433 10.8182H16.2883L12.5944 17.0028V21H11.0632V17.0028L7.36927 10.8182ZM17.1398 21H15.5091L19.1732 10.8182H20.948L24.6121 21H22.9814L20.1029 12.6676H20.0233L17.1398 21ZM17.4132 17.0128H22.703V18.3054H17.4132V17.0128Z" fill="#FBFBFB"/>
</symbol>

<symbol id="youtube" viewBox="0 0 32 32">
<path d="M18.67 15.72l-3.74-1.75c-0.33-0.15-0.6 0.020-0.6 0.38v3.3c0 0.36 0.27 0.53 0.6 0.38l3.74-1.75c0.33-0.16 0.33-0.4 0-0.56zM16 0c-8.837 0-16 7.163-16 16s7.163 16 16 16v0c8.837 0 16-7.163 16-16s-7.163-16-16-16v0zM16 22.5c-8.19 0-8.33-0.74-8.33-6.5s0.13-6.5 8.33-6.5 8.33 0.74 8.33 6.5-0.14 6.5-8.33 6.5z"></path>
</symbol>
<symbol id="instagram" viewBox="0 0 32 32">
<path d="M23.39 0h-14.77c-4.761 0-8.62 3.859-8.62 8.62v0 14.76c0 4.761 3.859 8.62 8.62 8.62v0h14.77c4.754-0.011 8.604-3.865 8.61-8.619v-14.761c-0.006-4.758-3.862-8.614-8.619-8.62h-0.001zM16 23.39c-4.084 0-7.395-3.311-7.395-7.395s3.311-7.395 7.395-7.395v0c4.081 0 7.39 3.309 7.39 7.39s-3.309 7.39-7.39 7.39v0zM25.23 8.6c-0.041 0.003-0.088 0.005-0.136 0.005-1.022 0-1.85-0.828-1.85-1.85s0.828-1.85 1.85-1.85c0.048 0 0.095 0.002 0.142 0.005l-0.006-0c1.022 0 1.85 0.828 1.85 1.85s-0.828 1.85-1.85 1.85v0zM20.93 16c0 2.72-2.205 4.925-4.925 4.925s-4.925-2.205-4.925-4.925v0c0-2.717 2.203-4.92 4.92-4.92s4.92 2.203 4.92 4.92v0z"></path>
</symbol>
<symbol id="facebook" viewBox="0 0 32 32">
<path d="M32 16.040c0-8.85-7.17-16.040-16-16.040s-16 7.19-16 16.040c0 7.76 5.5 14.23 12.8 15.72v-10.9h-3.2v-4.82h3.2v-4.010c0-0.003 0-0.007 0-0.010 0-3.093 2.507-5.6 5.6-5.6 0 0 0 0 0 0h4v4.8h-3.2c-0.88 0-1.6 0.73-1.6 1.61v3.21h4.8v4.81h-4.8v11.15c8.080-0.8 14.4-7.63 14.4-15.96z"></path>
</symbol>
<symbol id="close" viewBox="0 0 32 32">
<path d="M32 3.72l-3.72-3.72-12.28 12.28-12.28-12.28-3.72 3.72 12.28 12.28-12.28 12.28 3.72 3.72 12.28-12.28 12.28 12.28 3.72-3.72-12.28-12.28 12.28-12.28z"></path>
</symbol>

<symbol id="icon-social-facebook" viewBox="0 0 32 32">
<path d="M29.333 16.033c0-7.378-5.973-13.367-13.333-13.367s-13.333 5.988-13.333 13.367c0 6.469 4.587 11.856 10.667 13.099v-9.089h-2.667v-4.010h2.667v-3.342c0-2.58 2.093-4.678 4.667-4.678h3.333v4.010h-2.667c-0.733 0-1.333 0.601-1.333 1.337v2.673h4v4.010h-4v9.29c6.733-0.668 12-6.363 12-13.3z"></path>
</symbol>
<symbol id="icon-social-instagram" viewBox="0 0 32 32">
<path d="M21.179 4h-11.692c-1.808 0.002-3.542 0.721-4.821 2s-1.998 3.012-2 4.821v11.692c0.002 1.808 0.721 3.542 2 4.821s3.012 1.998 4.821 2h11.692c1.808-0.002 3.542-0.721 4.821-2s1.998-3.012 2-4.821v-11.692c-0.002-1.808-0.721-3.542-2-4.821s-3.012-1.998-4.821-2zM15.333 22.513c-1.156 0-2.287-0.343-3.248-0.985s-1.711-1.555-2.153-2.624c-0.442-1.068-0.558-2.244-0.333-3.378s0.782-2.176 1.6-2.993c0.818-0.818 1.859-1.374 2.993-1.6s2.309-0.11 3.378 0.333 1.981 1.192 2.624 2.153c0.642 0.961 0.985 2.092 0.985 3.248-0.002 1.55-0.618 3.036-1.714 4.132s-2.582 1.712-4.132 1.714zM22.641 10.82c-0.289 0-0.572-0.086-0.812-0.246s-0.428-0.389-0.538-0.656c-0.111-0.267-0.14-0.561-0.083-0.844s0.196-0.544 0.4-0.748c0.204-0.204 0.465-0.344 0.748-0.4s0.577-0.027 0.844 0.083c0.267 0.111 0.495 0.298 0.656 0.538s0.246 0.523 0.246 0.812c0 0.388-0.154 0.759-0.428 1.033s-0.646 0.428-1.033 0.428zM19.231 16.667c0 0.771-0.229 1.524-0.657 2.165s-1.037 1.14-1.749 1.435c-0.712 0.295-1.496 0.372-2.252 0.222s-1.45-0.522-1.995-1.067-0.916-1.239-1.067-1.995c-0.15-0.756-0.073-1.54 0.222-2.252s0.795-1.321 1.435-1.749c0.641-0.428 1.395-0.657 2.165-0.657 1.034 0 2.025 0.411 2.756 1.142s1.142 1.722 1.142 2.756z"></path>
</symbol>
<symbol id="icon-social-youtube" viewBox="0 0 32 32">
<path d="M18.226 15.768l-3.119-1.455c-0.272-0.126-0.496 0.015-0.496 0.317v2.742c0 0.301 0.224 0.443 0.496 0.317l3.118-1.455c0.274-0.128 0.274-0.336 0.001-0.464zM16 2.667c-7.364 0-13.333 5.969-13.333 13.333s5.969 13.333 13.333 13.333c7.364 0 13.333-5.969 13.333-13.333s-5.969-13.333-13.333-13.333zM16 21.417c-6.825 0-6.944-0.615-6.944-5.417s0.119-5.417 6.944-5.417c6.825 0 6.944 0.615 6.944 5.417s-0.119 5.417-6.944 5.417z"></path>
</symbol>
</defs>
</svg>
